<svg xmlns="http://www.w3.org/2000/svg" xmlns:xlink="http://www.w3.org/1999/xlink" version="1.1" width="261.2pt" height="261.2pt" viewBox="0 0 261.2 261.2">
<g enable-background="new">
<g id="Layer-1" data-name="Layer 1">
<path transform="matrix(1,0,0,-1,1,260.2)" d="M 0 0 L 259.2 0 L 259.2 259.2 L 0 259.2 Z " fill="#323C4E" fill-rule="evenodd"/>
<path transform="matrix(1,0,0,-1,1,260.2)" d="M 154.929 29.1402 C 152.6547 29.0605 151.7468 28.7626 151.7321 30.7451 L 151.7315 40.5882 C 151.7323 41.4822 151.7576 42.0647 152.5221 42.2756 C 153.0802 42.4295 154.3054 42.34 154.95 42.3298 Z M 36 124.3392 L 32.4 128.1643 L 76.1987 128.1643 L 116.7321 213.9231 L 116.7321 174.7054 L 109.6174 159.6526 L 120.3318 159.6526 L 120.3318 221.5392 L 88.2003 221.5392 L 81 236.8403 L 120.3318 236.8403 L 138.8682 236.8403 L 178.2 236.8403 L 170.9997 221.5392 L 138.8682 221.5392 L 138.8682 159.6526 L 149.5826 159.6526 L 142.4679 174.7054 L 142.4679 213.9231 L 183.0013 128.1643 L 226.8 128.1643 L 223.2 124.3392 L 184.8093 124.3392 L 166.2732 124.3392 L 92.9268 124.3392 L 74.3907 124.3392 Z M 94.7347 128.1643 L 164.4653 128.1643 L 156.8146 144.3515 L 138.8682 144.3515 L 120.3318 144.3515 L 102.3854 144.3515 Z M 212.1656 66.4583 L 212.1712 62.155 C 213.7056 61.6414 219.4381 61.6884 221.1364 61.9155 C 224.1425 62.3174 225.7699 63.3285 226.3791 66.1629 C 226.8507 68.3569 226.9715 82.3275 226.5049 84.4191 C 225.9238 87.0267 223.8165 87.6824 221.2929 88.5733 C 217.8632 89.7837 217.2336 89.9271 217.2353 94.0297 C 217.2362 95.904 216.9981 101.7045 217.698 102.9546 C 218.7153 104.7725 223.8914 103.5958 226.118 103.7979 C 226.146 104.5956 226.1279 105.4165 226.1282 106.2173 C 226.1282 106.6122 226.1373 107.0084 226.1381 107.4019 C 226.1392 107.9895 226.2478 108.0814 225.6911 108.1655 C 224.2477 108.3844 222.372 108.4895 220.8844 108.487 C 211.9314 108.4708 212.2963 105.8907 212.2963 97.0764 C 212.2963 94.6945 211.9785 89.496 212.8918 87.6762 C 214.6221 84.2281 221.1403 85.2253 221.6458 81.538 C 221.8337 80.1683 221.7155 78.0296 221.7155 76.5692 C 221.7155 74.5384 222.0386 68.5321 221.0981 67.214 C 219.8557 65.4724 214.4625 66.3355 212.1656 66.4583 Z M 189.9626 87.838 C 189.79 89.0155 189.807 102.7936 190.012 103.424 L 198.9094 103.4283 L 198.9119 107.7608 L 185.1316 107.7608 L 185.1316 61.7496 L 198.9111 61.7496 L 198.8875 66.0881 C 197.2981 66.0881 191.0458 65.8868 189.9822 66.1714 C 189.79 67.0601 189.9142 69.5526 189.9142 70.6116 C 189.9142 72.7699 189.7566 83.0543 190.027 83.7119 L 197.5895 83.7153 L 197.5904 87.7433 C 196.2156 87.7433 190.8887 87.575 189.9626 87.838 M 189.9626 87.838 C 190.8887 87.575 196.2156 87.7433 197.5904 87.7433 L 197.5895 83.7153 L 190.027 83.7119 C 189.7566 83.0543 189.9142 72.7699 189.9142 70.6116 C 189.9142 69.5526 189.79 67.0601 189.9822 66.1714 C 191.0458 65.8868 197.2981 66.0881 198.8875 66.0881 L 198.9111 61.7496 L 185.1316 61.7496 L 185.1316 107.7608 L 198.9119 107.7608 L 198.9094 103.4283 L 190.012 103.424 C 189.807 102.7936 189.79 89.0155 189.9626 87.838 Z M 185.0236 61.7077 L 199.0191 61.6586 C 199.0828 62.502 199.1724 65.6169 198.9411 66.2182 L 190.0517 66.2389 L 190.0517 83.5988 L 197.6689 83.6079 C 197.7676 84.3557 197.8311 87.3249 197.6168 87.8743 L 190.0542 87.8958 L 190.0519 103.3004 L 198.9731 103.3081 C 199.1194 103.9331 199.1171 107.2414 198.9768 107.8478 L 185.076 107.8764 Z M 159.971 103.3982 C 161.2216 103.4586 163.0953 103.4705 164.3224 103.3169 C 165.6422 103.1516 166.4464 102.6918 166.7424 101.4214 C 167.1704 99.5834 166.9476 95.1698 166.9476 93.043 C 166.9476 91.0746 167.1582 86.1917 166.6735 84.6142 C 166.301 83.4015 165.5756 83.0137 164.1257 82.8289 C 162.9507 82.6787 161.2148 82.7022 159.9664 82.7433 Z M 160.003 78.3754 C 164.425 78.5126 169.7502 77.8518 171.214 81.7109 C 172.2631 84.4753 171.8841 92.1611 171.8841 95.6208 C 171.8841 99.8184 172.6444 105.7039 168.7544 107.0799 C 166.8427 107.7559 164.3876 107.7517 162.2251 107.7608 C 160.3678 107.7687 156.6935 107.9683 155.02 107.7262 L 155.0282 61.6586 L 159.9642 61.6924 Z M 130.481 104.0559 C 131.8025 104.2189 134.9113 104.2991 135.8799 103.6239 C 137.0713 102.7936 136.9446 100.5684 136.9483 98.8345 C 136.9576 94.9286 136.9483 91.0216 136.9483 87.1157 C 136.9483 81.9269 137.0962 74.5665 136.9168 69.533 C 136.8437 67.4819 136.5035 66.3885 134.4787 66.1552 C 133.094 65.9954 129.9586 65.9021 128.9727 66.5994 C 127.8048 67.426 127.9273 69.6898 127.9242 71.4127 L 127.9242 94.8501 C 127.9242 96.7876 127.8822 98.7746 127.9545 100.7067 C 128.0347 102.8438 128.4004 103.7991 130.481 104.0559 Z M 123.0446 68.2489 C 123.3848 61.9398 126.9026 61.592 132.9642 61.6669 C 139.3121 61.7451 141.6634 62.7225 141.8661 69.186 C 142.035 74.5676 141.8873 80.185 141.8873 85.5921 C 141.8873 89.7727 142.0489 98.335 141.8224 102.003 C 141.44 108.1834 137.9667 108.6248 131.9094 108.5525 C 125.5309 108.4762 123.2011 107.5992 123.0038 101.0614 C 122.8414 95.6741 122.9848 90.066 122.9848 84.6547 C 122.9848 79.3346 122.7611 73.5089 123.0446 68.2489 Z M 95.7538 61.6586 L 109.8283 61.6629 L 109.8258 66.1351 L 100.6756 66.151 L 100.6271 107.7653 L 95.7351 107.7559 Z M 70.7148 103.4076 C 71.9036 103.496 73.7957 103.4606 74.9673 103.3302 C 76.3628 103.1749 77.129 102.748 77.4388 101.4902 C 77.8836 99.6854 77.6605 95.1664 77.6605 93.0489 C 77.6605 91.0718 77.8757 86.2679 77.3918 84.6547 C 77.0219 83.4225 76.2846 83.0262 74.8706 82.8394 C 73.9054 82.7124 71.6562 82.6554 70.6771 82.7711 Z M 65.7374 61.683 L 70.655 61.6586 L 70.6788 78.3609 C 74.3958 78.7788 80.2261 77.4944 81.9057 81.6676 C 82.9715 84.3163 82.5996 92.1467 82.5996 95.51 C 82.5996 97.7757 82.7147 100.3958 82.4363 102.5983 C 82.1415 104.9267 81.4048 106.3052 79.5861 107.0379 C 77.2943 107.9606 68.7441 107.9334 65.7774 107.7517 Z M 38.8213 75.0983 C 38.9106 77.201 39.4642 80.043 39.7562 82.1801 C 40.0921 84.6371 42.6132 102.378 42.4145 103.2868 C 42.7382 100.8513 42.8873 98.5088 43.2258 96.1021 L 45.1443 82.0916 C 45.4343 79.9835 45.9853 77.1678 46.0661 75.0957 Z M 32.4 61.662 L 36.9964 61.6595 L 38.3272 70.4727 L 46.527 70.4906 L 47.8789 61.6677 L 52.6649 61.6586 C 52.602 63.0286 51.3536 71.0977 51.0647 73.1347 C 50.5219 76.9654 49.9813 80.8469 49.4371 84.6473 C 49.0748 87.1787 46.3969 107.1768 46.1117 107.6672 C 45.6194 107.9529 39.9192 107.8424 38.9387 107.7398 Z M 172.0525 29.1129 L 226.8 29.1129 L 226.8 27.1392 L 171.93 27.1392 C 171.8546 27.1261 171.7257 27.1284 171.4912 27.1171 C 170.0133 27.0465 167.7288 26.8512 166.4379 27.3076 C 165.6556 27.5842 165.2304 28.0664 165.0586 28.9854 C 164.8945 29.8604 164.9574 31.0309 164.9574 31.9456 C 164.9574 33.313 164.8029 36.754 165.1694 37.8516 C 165.7678 39.6417 168.0395 39.1297 169.9656 39.2335 C 170.0498 39.8571 170.0549 41.7957 169.6864 42.1421 C 169.2502 42.5529 167.3022 42.2493 166.5655 42.3417 L 165.8497 42.334 C 165.8395 42.7731 165.7704 43.7414 165.8982 44.1133 C 167.3521 44.1751 170.015 44.4645 171.1426 43.7783 C 172.3277 43.0571 172.0525 40.4337 172.0525 38.8474 Z M 32.4 47.2581 L 87.6552 47.2581 L 94.9714 47.2697 L 94.9714 47.2581 L 100.0304 47.2581 L 100.0304 45.2843 L 93.1779 45.2843 L 92.1725 45.2818 C 92.1725 39.5033 92.1158 33.4553 92.1728 27.6843 C 92.1801 26.958 92.1634 27.2378 92.0704 27.1562 C 92.1915 27.6605 92.1078 39.1972 92.1078 40.7679 C 92.1078 41.5607 92.069 44.6871 92.1209 45.2843 C 92.069 44.6871 92.1078 41.5607 92.1078 40.7679 C 92.1078 39.1972 92.1915 27.6605 92.0704 27.1562 L 90.0298 27.1556 C 89.9079 27.6664 89.9923 39.1921 89.9923 40.7679 C 89.9923 41.5684 90.0312 44.6774 89.9796 45.2843 C 90.0312 44.6774 89.9923 41.5684 89.9923 40.7679 C 89.9923 39.1921 89.9079 27.6664 90.0298 27.1556 C 89.9269 27.2458 89.9617 27.004 89.9209 27.3793 L 89.9269 45.2815 L 88.8041 45.2843 L 32.4 45.2843 Z M 151.6062 24.1818 C 151.4534 24.2938 150.9276 24.2691 150.6997 24.2337 C 150.6404 23.9913 150.6609 23.1712 150.6617 22.8203 C 150.6623 22.5694 150.6107 22.542 150.7799 22.4739 C 151.8758 22.3883 153.108 22.3277 154.2104 22.3787 C 155.3598 22.4317 156.2556 22.6196 156.6524 23.4417 C 157.1791 24.5327 156.9892 28.6418 156.9892 30.1453 C 156.9892 31.1233 157.0626 43.4871 156.9662 44.1096 C 149.006 44.5102 149.7212 44.3078 149.7212 36.7469 C 149.7212 35.3696 149.652 30.4277 149.7858 29.4372 C 150.192 26.4353 153.3183 27.5083 154.9227 27.3351 C 154.9366 26.5584 155.126 24.878 154.6033 24.4111 C 154.0783 23.9411 152.3914 24.2827 151.6062 24.1818 Z M 160.2261 27.1766 L 162.2004 27.1766 L 162.199 44.0904 L 160.2261 44.0904 Z M 162.254 46.2807 L 162.2585 48.973 L 160.2003 49.0003 L 160.2003 46.2521 Z M 160.2261 44.0904 L 162.199 44.0904 L 162.2004 27.1766 L 160.2261 27.1766 Z M 160.1782 27.1715 C 160.4852 27.049 161.8951 27.072 162.2659 27.1539 L 162.2415 44.1156 C 161.9257 44.187 160.4523 44.2023 160.1666 44.0994 Z M 162.254 46.2807 L 160.2003 46.2521 L 160.2003 49.0003 L 162.2585 48.973 C 162.197 49.0725 162.3433 49.0737 161.7718 49.0657 L 160.1578 49.0541 L 160.1495 46.1764 L 162.0159 46.1585 C 162.4258 46.2025 162.1324 46.1132 162.254 46.2807 Z M 111.7131 28.9363 C 109.6974 28.95 108.2007 28.4746 108.1908 30.5042 L 108.1908 40.7083 C 108.1942 43.1175 110.105 42.0934 111.6388 42.3564 L 111.6298 44.0935 C 110.8984 44.2945 109.0366 44.2409 108.2741 44.0969 C 105.772 43.6243 106.181 41.6375 106.181 39.0875 C 106.181 37.0261 106.0274 29.6853 106.3752 28.6333 C 106.681 27.7081 107.32 27.3195 108.4303 27.1468 C 109.4281 26.9921 110.7071 27.0196 111.723 27.1596 Z M 138.0246 27.1565 C 138.1232 27.5465 138.0637 28.4675 138.0637 28.9176 C 137.812 28.9049 136.885 28.7532 136.7728 28.9721 C 135.9048 28.9687 135.9692 29.9602 135.9694 30.7451 L 135.9694 48.5895 L 133.9013 48.5881 C 133.9013 44.2809 133.9013 39.9736 133.9013 35.6664 C 133.9013 33.6246 133.7805 31.1769 133.9345 29.1827 C 134.0141 28.1494 134.2743 27.4847 135.197 27.214 C 135.9266 26.9997 137.2609 26.9963 138.0246 27.1565 M 138.0246 27.1565 C 138.1368 27.239 138.0926 27.1596 138.1266 27.3223 L 138.1141 28.9619 L 136.7728 28.9721 C 136.885 28.7532 137.812 28.9049 138.0637 28.9176 C 138.0637 28.4675 138.1232 27.5465 138.0246 27.1565 Z M 101.6442 41.3955 L 101.7147 41.0091 C 101.7456 40.0626 101.7454 35.8209 101.6776 35.5734 L 99.3617 35.5601 C 99.2285 35.5598 99.0643 35.5496 98.9374 35.5533 C 98.6638 35.5623 98.7205 35.5039 98.6499 35.6664 L 98.6443 41.0094 C 98.6635 42.0279 98.9297 42.3658 99.9598 42.4074 C 100.8303 42.4429 101.6725 42.2969 101.6442 41.3955 Z M 102.7352 27.1587 C 102.8347 27.5366 102.7752 28.4797 102.7752 28.9219 C 102.4047 28.914 100.0355 28.779 99.7172 28.9582 C 98.6134 28.9437 98.6423 29.9072 98.6431 30.865 C 98.644 31.8472 98.6374 32.8303 98.6443 33.8244 L 103.614 33.8258 C 103.6936 34.2556 103.6412 38.1861 103.6412 38.9676 C 103.6412 40.3503 103.8427 42.6447 103.0575 43.5042 C 102.3197 44.3112 100.0599 44.3673 98.7454 44.1533 C 97.0214 43.8727 96.6209 43.0288 96.5795 41.188 C 96.5047 37.798 96.5758 34.325 96.575 30.9254 C 96.5744 29.1648 96.565 27.8118 98.0847 27.3044 C 99.0454 26.9838 101.6637 26.9685 102.7352 27.1587 Z M 98.6499 35.6664 C 98.7205 35.5039 98.6638 35.5623 98.9374 35.5533 C 99.0643 35.5496 99.2285 35.5598 99.3617 35.5601 L 101.6776 35.5734 C 101.7454 35.8209 101.7456 40.0626 101.7147 41.0091 L 101.6442 41.3955 L 101.6586 35.6295 C 101.0115 35.6295 99.1545 35.549 98.6499 35.6664 Z M 102.7352 27.1587 C 102.8503 27.2412 102.8032 27.1587 102.8373 27.3229 C 102.8449 27.3586 102.8594 28.7838 102.7823 28.9661 L 99.7172 28.9582 C 100.0355 28.779 102.4047 28.914 102.7752 28.9219 C 102.7752 28.4797 102.8347 27.5366 102.7352 27.1587 Z M 169.9773 37.5778 L 169.9849 28.9522 C 166.3639 28.6064 166.9969 29.5333 166.9969 33.2663 C 166.9969 37.0208 166.4022 37.8374 169.9773 37.5778 Z M 166.5655 42.3417 L 165.8497 42.334 C 165.8395 42.7731 165.7704 43.7414 165.8982 44.1133 C 165.7145 43.9982 165.786 43.6776 165.786 43.2286 C 165.786 42.9236 165.7491 42.5894 165.8197 42.2957 C 166.0442 42.2617 166.4056 42.2612 166.5655 42.3417 Z M 115.458 42.317 C 116.0005 42.3734 117.2557 42.4012 117.7804 42.3249 C 118.5239 42.2169 118.5783 41.6452 118.6053 40.875 C 118.6724 38.9452 118.5256 28.0477 118.635 27.1607 L 120.6626 27.163 C 120.75 27.7603 120.6845 38.4077 120.6845 39.3279 C 120.6845 41.0825 120.9586 43.4608 119.2414 44.028 C 118.3011 44.3384 114.5874 44.2213 113.44 44.104 C 113.3507 43.8911 113.3881 43.3106 113.3881 43.0486 C 113.3881 41.0814 113.3348 27.697 113.4085 27.1607 L 115.4554 27.1607 Z M 126.6503 42.3595 C 127.1823 42.4721 128.0752 42.4338 128.4565 42.1387 C 128.8911 41.8028 128.8295 41.1199 128.829 40.4677 C 128.8278 39.0875 128.829 37.707 128.829 36.3268 C 128.829 34.6864 128.8928 31.6168 128.823 30.0824 C 128.7924 29.4055 128.5951 29.0418 127.9621 28.914 C 127.4105 28.8026 126.525 28.8011 126.1244 29.1231 C 125.6808 29.4797 125.7545 30.1371 125.7548 30.8052 L 125.7548 39.0875 C 125.7548 40.7942 125.4444 42.1044 126.6503 42.3595 Z M 123.6951 29.965 C 123.7768 27.7345 124.6158 27.1086 126.8447 27.0272 C 128.7164 26.9589 130.5125 27.1054 130.7988 29.1898 C 130.9382 30.2083 130.8906 40.3435 130.8594 41.3104 C 130.788 43.5589 129.9163 44.1677 127.6877 44.2434 C 125.7752 44.3089 124.0294 44.149 123.7527 42.0695 C 123.6217 41.0882 123.6634 30.8438 123.6951 29.965 Z M 141.711 29.785 C 141.6438 30.2584 141.6898 37.385 141.6898 38.067 C 141.6898 41.3589 141.1892 42.5971 143.5907 42.3964 C 144.2523 42.3411 144.6443 42.0866 144.7376 41.4473 C 144.8408 40.739 144.7639 34.4835 144.7639 33.2059 C 144.7639 32.37 144.9213 29.8352 144.5525 29.302 C 144.1848 28.7697 141.9049 28.4148 141.711 29.785 Z M 146.776 29.6048 C 146.9115 31.4753 146.8035 33.7479 146.8035 35.6664 C 146.8035 37.5763 146.9157 39.873 146.7717 41.7305 C 146.605 43.8795 145.3431 44.2602 143.1686 44.2508 C 141.0293 44.2417 139.8112 43.8426 139.6505 41.7127 C 139.5017 39.7406 139.6216 35.0011 139.6216 32.546 C 139.6216 28.8927 139.1329 26.9889 143.2885 27.0193 C 145.4494 27.0354 146.6203 27.4606 146.776 29.6048 " fill="#ffffff" fill-rule="evenodd"/>
</g>
</g>
</svg>
